PathFileType	4	(X/Y/Z)	E:\3-PhD\Data\MocapData\ElaboratedData\012\pre\dynamicElaborations\RunA1\RunA1.trc
DataRate	CameraRate	NumFrames	NumMarkers	Units	OrigDataRate	DataStartFrame
200	200	4	56	mm	200	473
Frame#	Time	FHD			LBHD			RBHD			C7			T10			CLAV			LSHO			LUUPA			LMUPA			LDUPA			LLEP			LMEP			LRAD			LUL			LRFIN			RSHO			RUPA1			RMUPA			RDUPA			RLEP			RMEP			RRAD			RUL			RUFIN			LASI			RASI			USACR			LSACR			RSACR			LTHI1			LTHI2			LTHI3			LTHI4			LLFC			LTIB1			LTIB2			LTIB3			LTIB4			LHEE			LMT1			LMT5			LMT2			RTHI			RTHI2			RTHI3			RTHI4			RLFC			RTIB1			RTIB2			RTIB3			RTIB4			RLMAL			RHEE			RMT1			RMT2			RMT5		
		X1	Y1	Z1	X2	Y2	Z2	X3	Y3	Z3	X4	Y4	Z4	X5	Y5	Z5	X6	Y6	Z6	X7	Y7	Z7	X8	Y8	Z8	X9	Y9	Z9	X10	Y10	Z10	X11	Y11	Z11	X12	Y12	Z12	X13	Y13	Z13	X14	Y14	Z14	X15	Y15	Z15	X16	Y16	Z16	X17	Y17	Z17	X18	Y18	Z18	X19	Y19	Z19	X20	Y20	Z20	X21	Y21	Z21	X22	Y22	Z22	X23	Y23	Z23	X24	Y24	Z24	X25	Y25	Z25	X26	Y26	Z26	X27	Y27	Z27	X28	Y28	Z28	X29	Y29	Z29	X30	Y30	Z30	X31	Y31	Z31	X32	Y32	Z32	X33	Y33	Z33	X34	Y34	Z34	X35	Y35	Z35	X36	Y36	Z36	X37	Y37	Z37	X38	Y38	Z38	X39	Y39	Z39	X40	Y40	Z40	X41	Y41	Z41	X42	Y42	Z42	X43	Y43	Z43	X44	Y44	Z44	X45	Y45	Z45	X46	Y46	Z46	X47	Y47	Z47	X48	Y48	Z48	X49	Y49	Z49	X50	Y50	Z50	X51	Y51	Z51	X52	Y52	Z52	X53	Y53	Z53	X54	Y54	Z54	X55	Y55	Z55	X56	Y56	Z56	

497	2.480000	-2864.694811	1723.516688	484.559805	-3027.096913	1704.627929	393.977667	-3006.331434	1695.272879	534.653462	-3082.713275	1545.323393	463.681700	-3250.746363	1248.766367	376.463658	-2970.412006	1422.626623	450.167517	-2969.004005	1545.139715	311.305567	-3053.332983	1406.085517	136.958840	-3031.442051	1361.365509	140.791240	-3077.527584	1349.713350	103.080398	-3095.725675	1267.664317	64.660873	-3163.207744	1259.540300	123.346355	-3056.926375	1001.250538	144.096425	-3038.216526	1001.776598	67.432176	-3057.065924	910.872947	140.113124	-3003.711920	1447.748667	625.434375	-3120.737533	1229.438948	664.293569	-3080.194217	1202.029712	656.326426	-3120.658628	1161.418219	655.371130	-3120.440460	1087.646451	642.435202	-3147.235666	1090.366490	561.663896	-2874.848495	1021.936947	521.830955	-2880.964667	951.552675	556.232929	-2796.907830	990.138575	499.521867	-3146.241801	993.035152	263.701774	-3209.865922	997.479389	489.137389	-3315.587824	1123.289348	341.470640	-3327.144896	1094.854366	309.998666	-3342.017349	1098.475996	364.569938	-3189.266002	745.914004	160.967213	-3131.552767	683.068796	171.334370	-3094.037928	693.796989	200.145087	-3142.750698	624.731044	168.904522	-3138.268265	477.606168	190.641096	-3302.357394	409.656077	252.696568	-3344.883922	436.234339	191.236334	-3346.584953	405.339940	224.322178	-3427.624523	403.964754	246.400648	-3610.625885	496.589354	274.822228	-3611.013003	280.017976	261.278664	-3614.331264	320.229158	173.263949	-3597.880322	279.048934	214.597075	-3275.965976	693.331665	495.356241	-3224.605666	646.402144	496.127532	-3190.143816	653.883649	505.686441	-3233.202948	567.790276	468.204834	-3207.038893	455.209719	454.373371	-3211.156302	327.271540	395.012529	-3310.427132	288.424158	414.417218	-3274.259031	265.256725	399.629009	-3283.177535	224.297985	360.381344	-3418.798665	101.604154	320.186852	-3465.864702	64.996734	267.600444	-3240.507874	66.458242	302.826854	-3252.365337	67.696581	344.481094	-3305.125896	51.203666	387.439250	
498	2.485000	-2838.594907	1723.450976	483.993069	-3001.467846	1703.907308	394.196048	-2979.614430	1694.592674	534.951406	-3055.925506	1544.176629	464.303143	-3223.469963	1246.028293	376.315499	-2943.035538	1421.422457	448.843134	-2944.361125	1546.051653	310.470914	-3035.627650	1412.831791	134.887531	-3013.178340	1368.246754	135.005542	-3061.066860	1358.085711	99.284695	-3080.542930	1277.135894	58.730065	-3146.073199	1267.888977	118.740895	-3041.397294	1008.945630	129.743615	-3025.763813	1010.676868	52.460618	-3044.599322	918.536017	123.614005	-2973.704978	1447.552174	623.800633	-3084.667585	1227.174818	661.649132	-3043.398492	1200.977302	653.188246	-3082.768387	1159.054587	651.883151	-3079.111268	1085.230237	638.142442	-3107.327346	1088.549876	557.108190	-2833.009145	1037.008676	510.075655	-2834.369068	965.319691	542.357249	-2753.333147	1010.683263	485.976200	-3118.982212	990.104784	265.113363	-3185.755287	994.545531	489.284192	-3287.969703	1123.012217	340.241263	-3299.121783	1094.704543	308.941796	-3314.505438	1098.396014	363.277624	-3151.293861	748.905290	161.803900	-3090.649757	689.135044	173.352070	-3054.485829	701.483418	203.586730	-3098.778805	630.352707	170.683798	-3087.894181	483.621747	193.307238	-3251.349442	411.900661	253.994727	-3293.228739	437.220387	190.829473	-3294.885224	406.303878	223.728135	-3376.005416	403.026207	244.916436	-3562.980763	490.034440	270.094626	-3555.003743	273.951000	255.733707	-3557.025915	314.483284	167.612535	-3540.303596	273.520335	209.322293	-3258.101351	692.178468	494.322006	-3209.113408	643.336177	494.135419	-3174.171639	650.194959	504.109048	-3219.639492	565.184289	466.697713	-3196.215492	451.820786	452.958470	-3204.448349	323.629970	393.588855	-3304.672853	287.930473	413.368577	-3269.260569	263.364182	398.411591	-3279.383614	222.588957	359.146476	-3418.220312	103.495049	319.089754	-3465.854724	66.809967	266.749555	-3240.536751	66.682349	302.683019	-3252.435695	67.822326	344.358179	-3305.328365	51.675031	387.182986	
499	2.490000	-2812.437194	1723.669240	483.318670	-2975.711893	1703.459945	394.200592	-2952.825290	1694.177238	535.202570	-3028.900150	1543.340872	464.657272	-3195.972623	1243.778933	376.250743	-2915.474188	1420.606610	447.290890	-2919.484195	1547.292294	309.583475	-3017.606080	1420.006640	133.276337	-2994.713729	1375.785226	129.575549	-3044.310341	1367.020867	95.971131	-3065.115264	1287.248704	53.214517	-3128.637343	1276.768107	114.457898	-3025.463846	1017.562900	115.844723	-3013.072468	1020.556979	38.057871	-3031.286206	927.289752	107.807167	-2943.425288	1448.115494	621.857434	-3048.420595	1225.869168	659.248841	-3006.558596	1200.836902	650.105630	-3044.809928	1157.709455	648.633628	-3038.060906	1083.975282	633.977211	-3067.420584	1087.730111	552.695794	-2792.513868	1053.156812	499.178483	-2789.170754	980.569435	529.380759	-2711.509166	1032.264651	473.409902	-3091.686401	987.375754	266.437226	-3161.175212	991.739371	489.389216	-3260.189264	1122.995551	339.221574	-3271.073229	1094.899616	307.951904	-3286.837618	1098.497289	362.132942	-3113.676392	752.806298	162.755572	-3050.248904	696.266560	175.578746	-3015.465195	710.206719	207.027675	-3055.302496	637.183650	172.764086	-3037.900108	491.038780	196.255035	-3200.102809	414.532963	255.511409	-3241.610985	438.560639	190.579176	-3243.040583	407.515250	223.206954	-3324.120914	401.919577	243.703011	-3515.253076	482.022284	265.308453	-3497.872780	266.952163	250.675777	-3498.941538	307.666361	162.257182	-3481.730599	267.103473	204.323840	-3240.364919	691.222088	493.344208	-3193.966307	640.441929	492.374939	-3158.572558	646.533702	502.783758	-3206.598201	562.804694	465.270366	-3186.226757	448.644395	451.753434	-3198.285787	320.389088	392.498678	-3299.356849	287.666706	412.522665	-3264.641909	261.799292	397.508605	-3275.876809	221.229813	358.207309	-3417.678023	105.577175	318.217140	-3465.809104	68.965361	266.056123	-3240.549445	66.884344	302.617063	-3252.467698	67.863953	344.286386	-3305.479951	52.018647	386.982460	
500	2.495000	-2786.211068	1724.192539	482.533251	-2949.792560	1703.307613	393.949907	-2925.968999	1694.069841	535.404178	-3001.654521	1542.838287	464.741203	-3168.240043	1242.068391	376.311623	-2887.728559	1420.234456	445.517138	-2894.345861	1548.842350	308.636638	-2999.152352	1427.523823	132.139703	-2975.952170	1383.884485	124.592437	-3027.149718	1376.418440	93.196287	-3049.337448	1297.905926	48.184713	-3110.833281	1286.087472	110.556859	-3009.114562	1026.957405	102.414274	-3000.111732	1031.291208	24.270223	-3017.090125	936.960643	92.675017	-2912.925037	1449.437324	619.632181	-3012.043719	1225.471776	657.104602	-2969.706549	1201.580486	647.102986	-3006.840770	1157.346596	645.660449	-2997.401108	1083.825571	630.000211	-3027.665156	1087.864508	548.442922	-2753.428613	1070.141733	489.195838	-2745.462042	997.065083	517.413704	-2671.500047	1054.583701	461.845641	-3064.276325	985.011144	267.592899	-3136.054282	989.101262	489.478765	-3232.253385	1123.182830	338.428553	-3242.988037	1095.368104	307.069891	-3259.002388	1098.727697	361.165426	-3076.525187	757.538275	163.804853	-3010.483944	704.340166	177.927912	-2977.072250	719.835330	210.347488	-3012.505504	645.099294	175.078918	-2988.506048	499.756688	199.413154	-3148.708625	417.538057	257.196477	-3190.102649	440.192904	190.495666	-3191.126132	408.968829	222.801624	-3272.001627	400.641246	242.820902	-3467.339989	472.574863	260.541009	-3439.612524	259.172501	246.209082	-3440.100069	299.901428	157.269370	-3422.176087	259.929626	199.667005	-3222.760160	690.485286	492.378143	-3179.116954	637.770585	490.846073	-3143.309353	642.926959	501.676873	-3194.066213	560.716826	463.901416	-3177.146711	445.749741	450.717706	-3192.661646	317.620304	391.722886	-3294.485443	287.687899	411.851722	-3260.396336	260.627697	396.906758	-3272.640396	220.265645	357.561954	-3417.146059	107.854879	317.593306	-3465.727845	71.481466	265.550386	-3240.555868	67.025654	302.615220	-3252.471111	67.796674	344.248091	-3305.590498	52.241275	386.844096	
